<?xml version="1.0" encoding="UTF-8"?>
<svg version="1.1" xmlns="http://www.w3.org/2000/svg" width="1692" height="528">
<path d="M0 0 C1.93852592 -0.0129007 1.93852592 -0.0129007 3.91621399 -0.02606201 C5.34664877 -0.03049699 6.77708397 -0.03479537 8.20751953 -0.03897095 C9.7157154 -0.04687582 11.22390941 -0.05514501 12.73210144 -0.06375122 C17.68482669 -0.08993596 22.63756022 -0.10527951 27.59033203 -0.11953735 C29.298818 -0.12489928 31.00730392 -0.1302768 32.71578979 -0.13566971 C39.82738005 -0.15729696 46.93896808 -0.17603012 54.05058289 -0.1872921 C64.22151998 -0.20350752 74.39207363 -0.2366283 84.56286621 -0.29369295 C91.72485853 -0.33249659 98.88674876 -0.35193732 106.04884338 -0.35721266 C110.32055828 -0.36085308 114.59186389 -0.37273314 118.86346436 -0.4053154 C122.88882719 -0.43557875 126.91353704 -0.44164366 130.93898964 -0.42993164 C132.4078548 -0.42971239 133.87675187 -0.4378928 135.34551048 -0.45558548 C148.21381721 -0.60202428 158.39031937 1.9402803 167.81298828 11.0562439 C177.99144157 22.27971293 178.15697363 35.06440615 178.10351562 49.48007202 C178.10758613 51.32737029 178.11293069 53.17466613 178.1194458 55.0219574 C178.13306823 60.01574032 178.12784176 65.00933633 178.11830854 70.00312233 C178.11068559 75.24214792 178.11776486 80.48115807 178.12246704 85.72018433 C178.12791693 94.51631528 178.12075311 103.31237054 178.10644531 112.10848999 C178.09012031 122.26165887 178.09540935 132.41464699 178.11192453 142.56781149 C178.12556125 151.30272001 178.12744837 160.03757429 178.11960852 168.77249002 C178.11494403 173.98176439 178.11427341 179.19095394 178.12421799 184.40022278 C178.13291722 189.29886223 178.12681188 194.19726979 178.10953522 199.09588432 C178.10558614 200.88807733 178.1066772 202.68029002 178.11332321 204.47247505 C178.16361483 219.41815833 176.67771805 230.72619837 165.98486328 241.97421265 C155.5258183 251.49984172 143.11664481 252.48211456 129.48486328 252.34921265 C128.36842941 252.34638275 127.25199554 252.34355286 126.10173035 252.34063721 C122.57698306 252.32954722 119.05250099 252.30446394 115.52783203 252.27890015 C113.12093469 252.26885588 110.71403332 252.25973258 108.30712891 252.2515564 C102.44310792 252.22964465 96.57923893 252.19628046 90.71533203 252.15390015 C90.72532478 253.11657303 90.72532478 253.11657303 90.73551941 254.09869385 C90.80220514 260.81528686 90.84726998 267.53178487 90.88012695 274.24862671 C90.89515637 276.75094426 90.91558553 279.25323572 90.94165039 281.75546265 C90.97829081 285.3649034 90.99511749 288.97399398 91.00830078 292.58358765 C91.02378464 293.6912851 91.03926849 294.79898254 91.05522156 295.94024658 C91.0576915 307.49835761 88.33730912 316.34792662 80.71533203 325.15390015 C70.56276997 335.00508746 59.89888132 336.77360801 46.21533203 336.68515015 C44.72900134 336.68785186 43.24267237 336.69173989 41.75634766 336.69674683 C38.65656539 336.70261011 35.55724737 336.69418273 32.45751953 336.67538452 C28.51024407 336.65259613 24.56405695 336.66573648 20.61682129 336.68967438 C17.55216465 336.70421914 14.48776049 336.69948705 11.4230957 336.68916321 C9.96883002 336.68651978 8.51454043 336.68968044 7.06030273 336.69908142 C-6.32902411 336.7666699 -16.27722334 334.03159451 -25.97216797 324.4937439 C-35.23055412 314.3326651 -36.61470826 302.77403079 -36.47998047 289.45858765 C-36.47715057 288.38513092 -36.47432068 287.31167419 -36.47140503 286.20568848 C-36.46030619 282.8133071 -36.43522111 279.42120028 -36.40966797 276.02890015 C-36.39962485 273.71379982 -36.39050134 271.39869531 -36.38232422 269.08358765 C-36.3604007 263.4402665 -36.32702729 257.79710295 -36.28466797 252.15390015 C-37.37222382 252.1638929 -37.37222382 252.1638929 -38.48175049 252.17408752 C-45.3651168 252.234576 -52.2484426 252.28006436 -59.1320076 252.30933666 C-62.6696648 252.32489258 -66.20709963 252.34594252 -69.74462891 252.38021851 C-73.82570343 252.41950677 -77.90654992 252.4336924 -81.98779297 252.4468689 C-83.86352997 252.47009468 -83.86352997 252.47009468 -85.77716064 252.49378967 C-99.37581743 252.49635675 -111.36432631 249.87776108 -121.53466797 240.46640015 C-128.32300014 233.32577928 -131.37983968 225.33338175 -131.46166992 215.61630249 C-131.46824112 214.96853851 -131.47481232 214.32077454 -131.48158264 213.65338135 C-131.50124524 211.51553208 -131.51296522 209.37775298 -131.52294922 207.23983765 C-131.52702475 206.5057732 -131.53110027 205.77170876 -131.5352993 205.01539993 C-131.55613462 201.12651098 -131.57044472 197.23765699 -131.57983398 193.34872437 C-131.59086602 189.35431711 -131.62523536 185.36047188 -131.66500568 181.36626244 C-131.69129883 178.27593025 -131.6995372 175.18572913 -131.70311546 172.09529495 C-131.70795228 170.6242457 -131.71948229 169.15320113 -131.73815346 167.68226242 C-131.89644662 154.3801825 -129.31407006 144.58191859 -120.15966797 134.59140015 C-109.93861847 124.69864988 -97.42957335 123.8526942 -83.94091797 123.95858765 C-82.56229865 123.96232439 -81.18367665 123.96516823 -79.80505371 123.96716309 C-76.20146163 123.97474757 -72.59803441 123.99435053 -68.99450684 124.01657104 C-65.30739572 124.03714212 -61.6202576 124.04618873 -57.93310547 124.0562439 C-50.71688502 124.07760213 -43.50079972 124.11167423 -36.28466797 124.15390015 C-36.29466072 122.52137299 -36.29466072 122.52137299 -36.30485535 120.85586548 C-36.36588563 110.55833444 -36.41074535 100.2608405 -36.44010448 89.9631691 C-36.45570612 84.67006087 -36.47684308 79.3770996 -36.51098633 74.08407593 C-36.543777 68.96824464 -36.56156228 63.852554 -36.5692997 58.73662567 C-36.57480802 56.79276061 -36.58556366 54.84890253 -36.60185814 52.90509796 C-36.73085768 36.86675096 -36.04152822 22.27119267 -24.59716797 9.90390015 C-17.55938549 3.21333274 -9.59907308 0.04759858 0 0 Z M-3.28466797 34.15390015 C-4.55279662 37.95828611 -4.41594133 41.51816055 -4.39819336 45.48080444 C-4.39833939 46.32980316 -4.39848541 47.17880188 -4.39863586 48.05352783 C-4.3979388 50.86175078 -4.39015603 53.66990752 -4.38232422 56.4781189 C-4.38045931 58.42439233 -4.37903575 60.37066624 -4.3780365 62.31694031 C-4.37421709 67.44123631 -4.3643917 72.56550401 -4.35333252 77.68978882 C-4.34310603 82.91805641 -4.33853622 88.14632857 -4.33349609 93.37460327 C-4.32276894 103.63438134 -4.3056994 113.89413839 -4.28466797 124.15390015 C-3.5367952 124.15754578 -2.78892242 124.16119141 -2.01838684 124.16494751 C5.08572687 124.20306979 12.18938775 124.26019207 19.29316235 124.33780289 C22.94391162 124.3770412 26.59442823 124.4093437 30.24536133 124.42489624 C33.77943166 124.44022119 37.31286129 124.47493848 40.84664345 124.52220917 C42.82752792 124.54391403 44.80859407 124.54636017 46.78959656 124.54824829 C59.97144502 124.75781612 70.83106194 127.50854733 80.39111328 136.77890015 C86.91858481 143.77609047 89.7905137 152.03851296 89.9206543 161.48300171 C89.95057213 163.40454071 89.95057213 163.40454071 89.98109436 165.36489868 C89.99807613 166.75810628 90.01495503 168.15131514 90.03173828 169.54452515 C90.05231998 170.97370997 90.07331676 172.40288888 90.0947113 173.83206177 C90.14980653 177.58683465 90.19927092 181.34166132 90.24755859 185.0965271 C90.29786548 188.9308041 90.35350351 192.76500334 90.40869141 196.59921265 C90.51611939 204.11737589 90.61759819 211.63560397 90.71533203 219.15390015 C98.06593218 219.22984404 105.4164315 219.28245516 112.76733398 219.31869507 C115.26900005 219.33379959 117.77063956 219.35428444 120.2722168 219.38021851 C123.86399887 219.4165279 127.45543144 219.43360989 131.04736328 219.4468689 C132.73029228 219.47009468 132.73029228 219.47009468 134.44721985 219.49378967 C136.00849861 219.49412956 136.00849861 219.49412956 137.60131836 219.49447632 C138.97698723 219.50446907 138.97698723 219.50446907 140.38044739 219.5146637 C142.7070412 219.32149125 142.7070412 219.32149125 144.33745289 218.08210468 C146.39247201 215.20631024 146.12914059 212.34674175 146.09628296 208.94186401 C146.10330292 207.83250968 146.10330292 207.83250968 146.11046469 206.70074415 C146.12245784 204.21554755 146.11294088 201.73089799 146.10351562 199.24569702 C146.10757942 197.46689023 146.11292021 195.68808596 146.1194458 193.9092865 C146.13314812 189.07257742 146.12780875 184.23605983 146.11830854 179.39934731 C146.11072703 174.34385273 146.11775335 169.28837484 146.12246704 164.23287964 C146.127929 155.74216764 146.12072144 147.25153387 146.10644531 138.76083374 C146.09011797 128.93656315 146.09540616 119.11247932 146.11192453 109.28821325 C146.12552687 100.86183238 146.12746519 92.43550781 146.11960852 84.00911951 C146.11492511 78.97266738 146.11432547 73.9363031 146.12421799 68.89985657 C146.13286717 64.1654833 146.12690334 59.43135143 146.10953522 54.69700432 C146.1055594 52.95670409 146.10672306 51.21638364 146.11332321 49.47609138 C146.12148578 47.10576293 146.111282 44.73621463 146.09628296 42.36593628 C146.10632121 41.32572114 146.10632121 41.32572114 146.11656225 40.26449156 C146.08313103 37.55256755 145.96990468 35.57570637 144.55211067 33.22653675 C141.94453268 31.703771 139.96025067 31.77919581 136.94592285 31.77967834 C135.14140404 31.76915688 135.14140404 31.76915688 133.3004303 31.75842285 C131.96542192 31.76585073 130.6304152 31.77358189 129.29541016 31.78158569 C127.89098338 31.77915801 126.48655833 31.77543891 125.08213806 31.77052307 C121.26602822 31.76110715 117.45017455 31.77054525 113.6340847 31.7838552 C109.64362925 31.79516 105.65318659 31.79106294 101.66271973 31.78910828 C94.96097623 31.78822499 88.25933383 31.79931285 81.55761719 31.81771851 C73.80556849 31.83888668 66.05366791 31.84239622 58.30159616 31.83615655 C50.84943591 31.83046499 43.3973279 31.83610609 35.94517517 31.84733009 C32.7713881 31.85197885 29.59763294 31.85284874 26.42384338 31.85074425 C22.68756086 31.84886278 18.95142943 31.85695421 15.21518135 31.87280464 C13.84254646 31.8770529 12.46989626 31.87789441 11.09725761 31.87511444 C9.22641186 31.87189988 7.35555729 31.88218608 5.48474121 31.89320374 C3.9129372 31.89628304 3.9129372 31.89628304 2.30937958 31.89942455 C-0.52126589 31.97159819 -0.52126589 31.97159819 -3.28466797 34.15390015 Z M-99.28466797 159.15390015 C-99.88460008 161.72641124 -99.88460008 161.72641124 -99.78637695 164.67929077 C-99.7957579 165.81056396 -99.80513885 166.94183716 -99.81480408 168.10739136 C-99.8035701 169.32930176 -99.79233612 170.55121216 -99.78076172 171.81015015 C-99.78221695 173.06396484 -99.78367218 174.31777954 -99.78517151 175.60958862 C-99.78350992 178.26309762 -99.77399809 180.91517869 -99.7512207 183.56845093 C-99.72283481 186.96834816 -99.72557257 190.3673474 -99.73831081 193.7673111 C-99.7469403 197.01081537 -99.73182179 200.25417402 -99.71826172 203.49765015 C-99.72119736 204.71956055 -99.724133 205.94147095 -99.72715759 207.20040894 C-99.71447342 208.33168213 -99.70178925 209.46295532 -99.6887207 210.62850952 C-99.68331772 211.62539795 -99.67791473 212.62228638 -99.67234802 213.64938354 C-99.45618784 216.15346628 -99.45618784 216.15346628 -98.12493896 217.97795105 C-95.50146822 219.65437156 -93.53768247 219.513982 -90.4362793 219.49447632 C-89.21847778 219.49411377 -88.00067627 219.49375122 -86.74597168 219.49337769 C-85.46581177 219.47802979 -84.18565186 219.46268188 -82.86669922 219.4468689 C-81.69022827 219.44384766 -80.51375732 219.44082642 -79.30163574 219.43771362 C-74.90005746 219.42199825 -70.49860405 219.38011442 -66.09716797 219.34140015 C-51.33998047 219.24858765 -51.33998047 219.24858765 -36.28466797 219.15390015 C-36.28466797 198.36390015 -36.28466797 177.57390015 -36.28466797 156.15390015 C-45.93716797 156.09202515 -55.58966797 156.03015015 -65.53466797 155.96640015 C-68.5784668 155.93908813 -71.62226563 155.91177612 -74.75830078 155.88363647 C-77.16812747 155.87487548 -79.57795859 155.86723063 -81.98779297 155.8609314 C-83.24124512 155.8455835 -84.49469727 155.8302356 -85.78613281 155.81442261 C-86.98351074 155.81406006 -88.18088867 155.81369751 -89.41455078 155.81332397 C-90.453797 155.80666214 -91.49304321 155.80000031 -92.56378174 155.7931366 C-95.75957796 156.21686868 -97.1108546 156.77167904 -99.28466797 159.15390015 Z M-4.28466797 156.15390015 C-4.28466797 176.94390015 -4.28466797 197.73390015 -4.28466797 219.15390015 C16.50533203 219.15390015 37.29533203 219.15390015 58.71533203 219.15390015 C58.77720703 209.48077515 58.83908203 199.80765015 58.90283203 189.84140015 C58.93014404 186.78849731 58.95745605 183.73559448 58.9855957 180.59017944 C58.99435526 178.17782996 59.00200044 175.76547606 59.00830078 173.3531189 C59.02364868 172.09455078 59.03899658 170.83598267 59.05480957 169.53927612 C59.05517212 168.34177734 59.05553467 167.14427856 59.0559082 165.91049194 C59.06257004 164.86902512 59.06923187 163.82755829 59.07609558 162.75453186 C58.93167269 160.12373789 58.93167269 160.12373789 57.31904602 158.35661316 C54.17729526 156.00044208 52.04506929 156.03197431 48.1640625 156.04037476 C46.98674561 156.04049561 45.80942871 156.04061646 44.59643555 156.04074097 C43.35434326 156.04585693 42.11225098 156.0509729 40.83251953 156.0562439 C39.69435791 156.05725098 38.55619629 156.05825806 37.38354492 156.05929565 C33.11913042 156.06454006 28.85473025 156.07850125 24.59033203 156.09140015 C15.06158203 156.11202515 5.53283203 156.13265015 -4.28466797 156.15390015 Z M-4.28466797 252.15390015 C-4.34654297 259.80577515 -4.40841797 267.45765015 -4.47216797 275.34140015 C-4.49947998 277.7496106 -4.52679199 280.15782104 -4.55493164 282.63900757 C-4.56369593 284.55412291 -4.57134 286.46924385 -4.57763672 288.3843689 C-4.59298462 289.37360352 -4.60833252 290.36283813 -4.62414551 291.38204956 C-4.62450806 292.33567383 -4.62487061 293.2892981 -4.62524414 294.27182007 C-4.63190598 295.09566696 -4.63856781 295.91951385 -4.64543152 296.76832581 C-4.17141346 299.90280356 -3.29122756 301.69711894 -1.28466797 304.15390015 C1.27843254 304.89750068 1.27843254 304.89750068 4.24072266 304.76913452 C5.37199585 304.77843994 6.50326904 304.78774536 7.66882324 304.79733276 C8.89073364 304.7809375 10.11264404 304.76454224 11.37158203 304.74765015 C13.25230408 304.74771057 13.25230408 304.74771057 15.17102051 304.74777222 C17.82483672 304.74240497 20.47646123 304.72742685 23.12988281 304.69589233 C26.52980921 304.65621279 29.92862899 304.65184651 33.32874298 304.65935516 C36.5722828 304.66316383 39.81561223 304.64234543 43.05908203 304.62265015 C44.89194763 304.62234802 44.89194763 304.62234802 46.76184082 304.62203979 C47.89311401 304.60612793 49.02438721 304.59021606 50.18994141 304.57382202 C51.18682983 304.56540283 52.18371826 304.55698364 53.21081543 304.54830933 C55.72607002 304.33238322 55.72607002 304.33238322 57.53938293 302.93006897 C59.08583261 300.59429125 59.07744867 299.10835823 59.0559082 296.3152771 C59.05554565 295.32080566 59.05518311 294.32633423 59.05480957 293.30172729 C59.03946167 292.25907715 59.02411377 291.216427 59.00830078 290.1421814 C59.00527954 289.18195068 59.0022583 288.22171997 58.99914551 287.23239136 C58.98344312 283.64361837 58.94155915 280.05499853 58.90283203 276.46640015 C58.84095703 268.44327515 58.77908203 260.42015015 58.71533203 252.15390015 C37.92533203 252.15390015 17.13533203 252.15390015 -4.28466797 252.15390015 Z " fill="#156433" transform="translate(227.28466796875,95.84609985351563)"/>
<path d="M0 0 C1.29235062 -0.00860046 2.58470123 -0.01720093 3.91621399 -0.02606201 C5.34664877 -0.03049699 6.77708397 -0.03479537 8.20751953 -0.03897095 C9.7157154 -0.04687582 11.22390941 -0.05514501 12.73210144 -0.06375122 C17.68482669 -0.08993596 22.63756022 -0.10527951 27.59033203 -0.11953735 C29.298818 -0.12489928 31.00730392 -0.1302768 32.71578979 -0.13566971 C39.82738005 -0.15729696 46.93896808 -0.17603012 54.05058289 -0.1872921 C64.22151998 -0.20350752 74.39207363 -0.2366283 84.56286621 -0.29369295 C91.72485853 -0.33249659 98.88674876 -0.35193732 106.04884338 -0.35721266 C110.32055828 -0.36085308 114.59186389 -0.37273314 118.86346436 -0.4053154 C122.88882719 -0.43557875 126.91353704 -0.44164366 130.93898964 -0.42993164 C132.4078548 -0.42971239 133.87675187 -0.4378928 135.34551048 -0.45558548 C148.21381721 -0.60202428 158.39031937 1.9402803 167.81298828 11.0562439 C177.99144157 22.27971293 178.15697363 35.06440615 178.10351562 49.48007202 C178.10758613 51.32737029 178.11293069 53.17466613 178.1194458 55.0219574 C178.13306823 60.01574032 178.12784176 65.00933633 178.11830854 70.00312233 C178.11068559 75.24214792 178.11776486 80.48115807 178.12246704 85.72018433 C178.12791693 94.51631528 178.12075311 103.31237054 178.10644531 112.10848999 C178.09012031 122.26165887 178.09540935 132.41464699 178.11192453 142.56781149 C178.12556125 151.30272001 178.12744837 160.03757429 178.11960852 168.77249002 C178.11494403 173.98176439 178.11427341 179.19095394 178.12421799 184.40022278 C178.13291722 189.29886223 178.12681188 194.19726979 178.10953522 199.09588432 C178.10558614 200.88807733 178.1066772 202.68029002 178.11332321 204.47247505 C178.16361483 219.41815833 176.67771805 230.72619837 165.98486328 241.97421265 C154.82966484 252.13386706 141.50661327 252.46125632 127.06420898 252.38095093 C125.62418119 252.38038551 124.18415283 252.38070592 122.74412537 252.38183594 C118.86881563 252.38240536 114.9936319 252.3707183 111.11835122 252.35668802 C107.05581074 252.3441115 102.99326678 252.34300474 98.93070984 252.34063721 C91.25286686 252.33444265 83.57508144 252.31805948 75.89726371 252.29793823 C67.14990383 252.2755159 58.40254109 252.26456993 49.65515959 252.25454736 C31.6751779 252.23369126 13.69527501 252.19704059 -4.28466797 252.15390015 C-4.28466797 241.26390015 -4.28466797 230.37390015 -4.28466797 219.15390015 C-1.67915039 219.15913696 0.92636719 219.16437378 3.61083984 219.16976929 C63.07148651 219.35665112 63.07148651 219.35665112 122.52783203 218.77890015 C123.5946521 218.76352203 124.66147217 218.74814392 125.76062012 218.7322998 C128.66903997 218.68837918 131.57680575 218.63110758 134.48486328 218.56796265 C135.72315636 218.55062828 135.72315636 218.55062828 136.98646545 218.53294373 C141.31600575 218.56963039 141.31600575 218.56963039 144.71533203 216.15390015 C144.91260507 213.74973275 144.98469382 211.46068116 144.96929932 209.0553894 C144.9724193 208.31596871 144.97553928 207.57654801 144.97875381 206.81472063 C144.98676417 204.32418499 144.98039845 201.83389095 144.97412109 199.34335327 C144.97682961 197.56307329 144.98038976 195.78279443 144.98474121 194.0025177 C144.99388407 189.15758725 144.99031317 184.31274167 144.98398304 179.46780968 C144.97893284 174.40650574 144.98361175 169.34520924 144.98675537 164.28390503 C144.99039788 155.78303721 144.98558845 147.2822041 144.97607422 138.78134155 C144.96518913 128.94177039 144.9687145 119.10228211 144.97972703 109.26271296 C144.9887918 100.82703518 144.99008916 92.39138242 144.98484969 83.95570135 C144.98172552 78.91201767 144.98133286 73.86837298 144.98792267 68.82469177 C144.99368374 64.08381823 144.98972204 59.34305193 144.97813416 54.60219002 C144.97548092 52.85824321 144.97626391 51.11428744 144.98065948 49.37034416 C144.98609034 46.99757629 144.9793111 44.62515634 144.96929932 42.25241089 C144.97376076 41.55533917 144.9782222 40.85826745 144.98281884 40.14007235 C145.04688869 36.20544244 145.04688869 36.20544244 142.71533203 33.15390015 C140.12823473 32.85170572 140.12823473 32.85170572 137.05944824 32.90666199 C135.8563652 32.9024675 134.65328217 32.89827301 133.41374207 32.89395142 C132.07351604 32.89943529 130.73329083 32.90511828 129.39306641 32.91098022 C127.98716646 32.90990775 126.58126694 32.90796958 125.17536926 32.90522766 C121.35105176 32.90037066 117.52685052 32.90804562 113.70254707 32.9181807 C109.70628104 32.92694756 105.7100188 32.92520402 101.71374512 32.92481995 C95.00185189 32.92575723 88.2900038 32.93444971 81.578125 32.9480896 C73.81077039 32.96381579 66.04346525 32.96908774 58.27609587 32.96835405 C50.81380239 32.96774429 43.35152508 32.97284496 35.88923645 32.98114586 C32.70904921 32.98468245 29.5288677 32.98650965 26.34867859 32.98703957 C22.60588957 32.98804204 18.8631423 32.99413083 15.12036705 33.0042057 C13.7440841 33.00713353 12.36779634 33.0083555 10.99151039 33.00777817 C9.11807436 33.00728956 7.24464014 33.013546 5.37121582 33.02018738 C3.79608089 33.02270114 3.79608089 33.02270114 2.18912506 33.02526569 C-0.28757363 32.98861808 -0.28757363 32.98861808 -2.28466797 34.15390015 C-3.55834182 37.97492171 -3.4617587 41.58921343 -3.48999023 45.57260132 C-3.49988983 46.43135361 -3.50978943 47.2901059 -3.51998901 48.17488098 C-3.55159563 51.0155155 -3.57635817 53.85616675 -3.60107422 56.6968689 C-3.62164447 58.66556739 -3.64264096 60.63426147 -3.66404724 62.60295105 C-3.71926058 67.78638133 -3.76867315 72.96985142 -3.81689453 78.15335083 C-3.86711491 83.44198147 -3.92279818 88.73055424 -3.97802734 94.01913452 C-4.08559991 104.39734031 -4.18704693 114.77559632 -4.28466797 125.15390015 C-8.68122969 125.17855518 -13.07775517 125.19673857 -17.47436523 125.20883179 C-18.97111715 125.21387136 -20.46786412 125.22070302 -21.96459961 125.2293396 C-24.11166604 125.24142173 -26.25866759 125.24713206 -28.40576172 125.2515564 C-30.3460022 125.25941162 -30.3460022 125.25941162 -32.32543945 125.26742554 C-35.28466797 125.15390015 -35.28466797 125.15390015 -36.28466797 124.15390015 C-36.39583675 121.44810478 -36.44206424 118.7676014 -36.44580078 116.06088257 C-36.45076569 115.21194427 -36.45573059 114.36300598 -36.46084595 113.48834229 C-36.47552174 110.6620097 -36.4822825 107.83573344 -36.48779297 105.0093689 C-36.49354495 103.04414366 -36.49930268 101.07891844 -36.50506592 99.11369324 C-36.51559466 94.98003884 -36.52142341 90.84640397 -36.52490234 86.71273804 C-36.53035675 81.44175792 -36.55431085 76.17104011 -36.5828743 70.90014172 C-36.6016068 66.83264954 -36.60671214 62.7652188 -36.60823822 58.69768715 C-36.61124711 56.75662126 -36.61921533 54.81555599 -36.6324234 52.8745327 C-36.73355306 36.8541042 -36.02650539 22.25495833 -24.59716797 9.90390015 C-17.55938549 3.21333274 -9.59907308 0.04759858 0 0 Z " fill="#FABE23" transform="translate(227.28466796875,95.84609985351563)"/>
<path d="M0 0 C14.13967655 11.6734539 22.18618257 28.32837902 24.71875 46.32421875 C26.76123437 73.01835481 23.83893181 97.45624206 6.25 118.75 C-0.63518958 126.18015632 -9.45394026 130.86523781 -19 134 C-19.65742187 134.22558594 -20.31484375 134.45117188 -20.9921875 134.68359375 C-36.02766926 138.92512071 -52.73381685 136.14897643 -66.25 128.875 C-72 125 -72 125 -82 115 C-82.33 138.43 -82.66 161.86 -83 186 C-91.58 186 -100.16 186 -109 186 C-109 121.98 -109 57.96 -109 -8 C-100.42 -8 -91.84 -8 -83 -8 C-82.67 -2.06 -82.34 3.88 -82 10 C-81.13375 8.865625 -80.2675 7.73125 -79.375 6.5625 C-59.44495642 -16.05970672 -23.70788333 -17.12236019 0 0 Z M-76 25 C-76.84559982 25.73685028 -76.84559982 25.73685028 -77.70828247 26.48858643 C-82.91127627 31.53223806 -83.8414202 35.52944028 -83.99827576 42.67100525 C-83.98724319 43.89203445 -83.97621063 45.11306366 -83.96484375 46.37109375 C-83.97391251 47.64799576 -83.98298126 48.92489777 -83.99232483 50.24049377 C-84.00144907 52.93426362 -83.99631264 55.62347796 -83.9675293 58.31665039 C-83.93326611 61.74520541 -83.96658117 65.16920267 -84.01973629 68.59738064 C-84.06068282 71.89704382 -84.04098383 75.19627404 -84.02734375 78.49609375 C-84.04667465 79.71509872 -84.06600555 80.9341037 -84.08592224 82.19004822 C-83.93958033 89.87479125 -82.51051646 93.86805274 -76.98052979 99.28436279 C-66.67096066 108.21504412 -54.76760271 112.82705311 -41.0625 112.31640625 C-31.20130461 111.29758377 -21.61219654 107.20182443 -14.75 99.875 C-3.99377928 86.0107495 -1.72441659 69.98559469 -3 53 C-4.78729682 39.67147644 -10.04666211 29.11175485 -20 20 C-36.99481596 8.04483292 -61.24245242 10.40257048 -76 25 Z " fill="#262626" transform="translate(619,196)"/>
<path d="M0 0 C14.35151379 11.14680682 24.5385964 26.83850765 27.7265625 44.8828125 C30.2544293 66.82852469 28.3291601 89.44749993 14.84912109 107.73632812 C2.52727319 123.02245801 -13.24581042 132.72224691 -32.87109375 135 C-54.63398189 136.29642695 -73.85678726 132.08807643 -90.65625 117.59765625 C-104.26037516 104.8543148 -112.47594375 87.23994659 -113.109375 68.5078125 C-113.51723796 45.3015026 -109.3240816 24.42462099 -92.87109375 7 C-69.29403408 -17.2705026 -27.20192992 -18.94882738 0 0 Z M-63.87109375 17 C-64.61617187 17.43441406 -65.36125 17.86882812 -66.12890625 18.31640625 C-76.29322311 25.09905876 -81.98197051 36.89089982 -84.46313477 48.5402832 C-85.14193176 52.63297002 -85.21168637 56.67124618 -85.18359375 60.8125 C-85.1779541 61.6883374 -85.17231445 62.5641748 -85.16650391 63.46655273 C-84.89792003 77.85972341 -80.25118988 90.27546722 -70.3515625 100.921875 C-60.24332368 109.39050973 -48.77953247 111.8143174 -35.87109375 111 C-24.18979528 109.01954997 -14.75857393 102.50103293 -7.87109375 93 C-5.86607776 89.7731774 -4.29043897 86.52148151 -2.87109375 83 C-2.55140625 82.22785156 -2.23171875 81.45570313 -1.90234375 80.66015625 C3.29378705 65.43260628 0.97949551 47.90137422 -5.74609375 33.6875 C-11.27533888 23.22239214 -19.02425686 16.17318613 -30.47119141 12.58666992 C-34.38464456 11.6300038 -38.16775141 11.46779067 -42.18359375 11.5 C-43.01028564 11.50499512 -43.83697754 11.50999023 -44.6887207 11.51513672 C-51.87431056 11.7184165 -57.6348927 13.33793178 -63.87109375 17 Z " fill="#262626" transform="translate(1251.87109375,197)"/>
<path d="M0 0 C14.23995415 12.02637153 22.89449221 27.69950769 25.75 46.1875 C27.40312977 67.87385608 25.34936288 90.22337456 11.03125 107.6484375 C8.41056469 110.6480989 5.61977197 113.42643152 2.75 116.1875 C2.16734375 116.78949219 1.5846875 117.39148438 0.984375 118.01171875 C-12.33287562 130.82452806 -31.77194096 133.63720043 -49.3828125 133.40234375 C-68.69012595 132.79640272 -84.96155518 124.38652102 -98.1875 110.59375 C-113.72563386 92.46592716 -116.90786245 70.23778039 -115.25 47.1875 C-113.13664054 28.96117241 -103.32092246 11.67035572 -89.4375 -0.125 C-63.69973944 -19.48771525 -25.63883395 -19.62912249 0 0 Z M-74.25 22.1875 C-74.79269531 22.70957031 -75.33539062 23.23164063 -75.89453125 23.76953125 C-85.53585079 33.80138525 -87.66233059 48.14970541 -87.61572266 61.46240234 C-87.37878813 73.31564979 -84.18874539 83.47674326 -77.25 93.1875 C-76.79882812 93.83332031 -76.34765625 94.47914063 -75.8828125 95.14453125 C-69.93634522 102.8547812 -60.73936869 107.51858487 -51.25 109.1875 C-40.20214347 110.32892395 -29.37194025 108.61267416 -20.3125 101.875 C-13.36878512 95.8833484 -8.80870378 89.6678154 -5.25 81.1875 C-4.92773438 80.424375 -4.60546875 79.66125 -4.2734375 78.875 C0.28012804 65.59731356 -0.393272 47.92813599 -6.25 35.1875 C-11.79907727 24.31738973 -18.77472017 15.82242312 -30.46484375 11.54296875 C-35.2020408 10.03994181 -39.61224245 9.64728711 -44.5625 9.6875 C-45.80253784 9.69608032 -45.80253784 9.69608032 -47.06762695 9.70483398 C-58.23796495 10.02846976 -66.53943786 14.19970417 -74.25 22.1875 Z " fill="#262626" transform="translate(1570.25,198.8125)"/>
<path d="M0 0 C1.09014404 0.00757324 2.18028809 0.01514648 3.3034668 0.02294922 C22.27297066 0.40861695 38.21732339 7.30039567 51.83984375 20.52734375 C66.28842263 35.86335934 72.18915456 56.12984055 71.66430664 76.84838867 C70.74621287 96.25165106 63.61201513 115.57887375 49.6875 129.4375 C33.32787833 143.75777157 14.35263013 148.80109628 -6.99707031 147.62207031 C-25.23377817 146.16836395 -40.65101304 138.11643631 -53.1875 124.953125 C-68.27946236 107.08690485 -71.70364097 85.14219611 -70.3125 62.4375 C-68.30225929 44.27576246 -59.40480079 27.17627599 -45.6875 15.1328125 C-32.19945372 4.74231173 -16.92031674 -0.1663125 0 0 Z M-31 38.1875 C-41.03225254 50.25362606 -43.42618059 64.94350327 -42.52392578 80.19775391 C-41.57539292 90.2460685 -38.23560474 99.28206936 -32.3125 107.4375 C-31.86132812 108.08203125 -31.41015625 108.7265625 -30.9453125 109.390625 C-25.00754129 117.1063729 -15.7989625 121.76909599 -6.3125 123.4375 C4.73535653 124.57892395 15.56555975 122.86267416 24.625 116.125 C26.00819192 114.92858947 27.36509416 113.70077387 28.6875 112.4375 C29.23921875 111.91414063 29.7909375 111.39078125 30.359375 110.8515625 C40.72111717 99.90229886 44.01339102 85.07456232 43.6875 70.4375 C42.74415146 57.11793381 37.98076155 43.90218513 28.63671875 34.1171875 C18.1668468 25.09505336 7.13293949 23.57046056 -6.17285156 24.2421875 C-16.35997091 25.17209342 -24.2068635 30.94148774 -31 38.1875 Z " fill="#262626" transform="translate(826.3125,184.5625)"/>
<path d="M0 0 C10.56 0 21.12 0 32 0 C32.029729 6.4664209 32.029729 6.4664209 32.06005859 13.06347656 C32.12687613 27.28483951 32.20441647 41.50612892 32.28752708 55.72740555 C32.3376685 64.35226922 32.38411124 72.9771233 32.421875 81.60205078 C32.45479571 89.11873021 32.49462736 96.63533564 32.54279006 104.15193343 C32.56805428 108.13264002 32.58983578 112.11329752 32.60334396 116.09406281 C32.61616504 119.84018316 32.63821987 123.58613518 32.66738319 127.33216286 C32.67645862 128.70758813 32.68214913 130.08304052 32.68421364 131.45849419 C32.68753624 133.3357507 32.70418991 135.21296953 32.7215271 137.09014893 C32.72705786 138.14099293 32.73258862 139.19183693 32.73828697 140.27452469 C33.00092121 143.00959342 33.59364614 144.66613119 35 147 C42.3973076 147.04629419 49.79458407 147.08185426 57.19200706 147.10362434 C60.62675459 147.1140717 64.06140317 147.12824805 67.49609375 147.15087891 C71.44269638 147.17672063 75.38925863 147.18646493 79.3359375 147.1953125 C81.19066177 147.21079636 81.19066177 147.21079636 83.08285522 147.22659302 C84.22388702 147.22674408 85.36491882 147.22689514 86.54052734 147.22705078 C87.548685 147.231492 88.55684265 147.23593323 89.59555054 147.24050903 C92.18428264 147.23786227 92.18428264 147.23786227 94 145 C94.33069425 142.77803673 94.33069425 142.77803673 94.31884766 140.18310547 C94.33871735 139.18221893 94.35858704 138.1813324 94.37905884 137.15011597 C94.39061005 136.06674957 94.40216125 134.98338318 94.4140625 133.8671875 C94.43342865 132.76021515 94.4527948 131.6532428 94.4727478 130.51272583 C94.53266754 126.96689631 94.57897873 123.42103455 94.625 119.875 C94.66316835 117.47524603 94.70221939 115.07550592 94.7421875 112.67578125 C94.84004532 106.78392512 94.91951674 100.89222193 95 95 C105.56 95 116.12 95 127 95 C127.06908903 102.50767425 127.12876008 110.01423313 127.16479492 117.52197266 C127.17982636 120.07279206 127.20025705 122.62358585 127.22631836 125.17431641 C127.26294972 128.85325463 127.27978346 132.53184935 127.29296875 136.2109375 C127.30845261 137.34050873 127.32393646 138.47007996 127.33988953 139.63388062 C127.34232847 151.2624572 124.67284308 160.13525897 117 169 C106.84743793 178.85118731 96.18354929 180.61970786 82.5 180.53125 C81.0136693 180.53395171 79.52734034 180.53783974 78.04101562 180.54284668 C74.94123336 180.54870996 71.84191534 180.54028259 68.7421875 180.52148438 C64.79491204 180.49869598 60.84872492 180.51183633 56.90148926 180.53577423 C53.83683262 180.55031899 50.77242846 180.5455869 47.70776367 180.53526306 C46.25349799 180.53261964 44.7992084 180.5357803 43.3449707 180.54518127 C29.95564385 180.61276976 20.00744462 177.87769436 10.3125 168.33984375 C0.29556226 157.34625458 -0.3049914 144.86105185 -0.22705078 130.55419922 C-0.22648552 129.12417102 -0.22680547 127.69414224 -0.22793579 126.26411438 C-0.22850582 122.41147178 -0.21680865 118.55895563 -0.20278788 114.70634222 C-0.19022175 110.66915382 -0.1891054 106.63196202 -0.18673706 102.59475708 C-0.18053949 94.96292143 -0.16415216 87.33114359 -0.14403808 79.69933331 C-0.12162524 71.0052 -0.11067215 62.31106383 -0.10064721 53.61690879 C-0.07978427 35.7445665 -0.04312975 17.87230338 0 0 Z " fill="#15A249" transform="translate(191,252)"/>
<path d="M0 0 C1.11697266 -0.020625 2.23394531 -0.04125 3.38476562 -0.0625 C21.46765327 -0.14636267 36.23597172 6.444986 49.203125 18.953125 C52.4489769 22.48432652 52.4489769 22.48432652 52.41015625 25.07421875 C50.93206578 28.38062996 48.35358878 30.46062883 45.6875 32.8125 C45.1615625 33.29396484 44.635625 33.77542969 44.09375 34.27148438 C41.05472168 37.00585763 38.03931546 39.26900149 34.4375 41.25 C33.99921875 40.66992188 33.5609375 40.08984375 33.109375 39.4921875 C27.1193442 32.11422274 19.82327536 27.27026644 10.4375 25.25 C-2.10117338 24.03593554 -13.84495297 24.69293619 -24.3671875 32.26953125 C-34.92805597 41.21649846 -40.31540223 51.79389062 -42.3125 65.5 C-42.395 66.7375 -42.4775 67.975 -42.5625 69.25 C-42.6140625 69.89582031 -42.665625 70.54164063 -42.71875 71.20703125 C-43.33534268 85.05467516 -38.96677057 98.8275728 -30.3125 109.625 C-22.7297717 117.62344805 -12.97686102 121.64679775 -2.10546875 122.53125 C10.56267327 122.86064914 20.15171644 119.94431774 29.5546875 111.3046875 C31.22126816 109.65149303 32.84820279 107.97727478 34.4375 106.25 C37.37863469 107.58534276 39.54595169 109.07464881 41.890625 111.2890625 C42.509375 111.86914062 43.128125 112.44921875 43.765625 113.046875 C44.39984375 113.65015625 45.0340625 114.2534375 45.6875 114.875 C46.3371875 115.48601562 46.986875 116.09703125 47.65625 116.7265625 C49.25395063 118.23028074 50.84749149 119.73815737 52.4375 121.25 C50.95834051 128.40099704 44.26377656 133.21861372 38.5625 137.31640625 C21.68748408 147.70620993 0.77884675 150.11828115 -18.4375 145.6875 C-32.26412039 142.14724208 -42.68860088 135.36620339 -52.5625 125.25 C-53.45195313 124.39148438 -53.45195313 124.39148438 -54.359375 123.515625 C-65.20272268 112.20589677 -70.92080266 94.6228362 -71.5625 79.25 C-71.60246094 78.42628906 -71.64242187 77.60257812 -71.68359375 76.75390625 C-72.20861908 55.47493844 -65.70404966 35.2342657 -51.09423828 19.55371094 C-37.16652036 5.45335464 -19.46897142 0.08774748 0 0 Z " fill="#262626" transform="translate(987.5625,184.75)"/>
<path d="M0 0 C8.91 0 17.82 0 27 0 C27 12.54 27 25.08 27 38 C36.24 38 45.48 38 55 38 C55 45.92 55 53.84 55 62 C45.76 62 36.52 62 27 62 C27.06294466 73.10955783 27.13837741 84.21883901 27.23571491 95.3281498 C27.28041653 100.48681701 27.31967323 105.64540528 27.34643555 110.80419922 C27.37247044 115.78399146 27.41287443 120.76347989 27.46318626 125.74308395 C27.47985367 127.64160759 27.49136873 129.54018377 27.49761391 131.43877029 C27.50725631 134.10094193 27.53531719 136.76233657 27.56762695 139.42431641 C27.56619186 140.20690826 27.56475677 140.98950012 27.5632782 141.79580688 C27.64517661 146.5763057 28.40517126 149.83909435 31 154 C34.42975829 156.93979282 37.44530916 157.46210212 41.9453125 157.30078125 C45.29740738 156.81007535 47.95114022 155.46579797 51 154 C52.32642829 153.64017105 53.65884116 153.30030296 55 153 C56.066245 155.90826592 57.09853265 158.82748162 58.125 161.75 C58.42792969 162.575 58.73085937 163.4 59.04296875 164.25 C59.32011719 165.04921875 59.59726563 165.8484375 59.8828125 166.671875 C60.14465332 167.4050293 60.40649414 168.13818359 60.67626953 168.89355469 C61.09393914 171.61124203 60.49338319 172.72919839 59 175 C49.8181011 182.76929907 37.44122366 182.86658194 26 182 C17.61158807 180.51016622 10.76924042 176.93347979 5.47406006 170.14021301 C-1.75549742 159.64349485 -0.51730931 147.30027681 -0.390625 135.14453125 C-0.38315348 133.03033486 -0.37746486 130.91613149 -0.37347412 128.80192566 C-0.3582896 123.26985143 -0.3190703 117.73820532 -0.2746582 112.20629883 C-0.2335498 106.54839873 -0.21542999 100.89042865 -0.1953125 95.23242188 C-0.15256847 84.15473071 -0.08227801 73.07746814 0 62 C-7.59 62 -15.18 62 -23 62 C-23 54.08 -23 46.16 -23 38 C-15.41 38 -7.82 38 0 38 C0 25.46 0 12.92 0 0 Z " fill="#262626" transform="translate(1069,150)"/>
<path d="M0 0 C0 8.91 0 17.82 0 27 C-4.29 27 -8.58 27 -13 27 C-24.37474311 29.00800242 -34.89552677 34.77160516 -43 43 C-44.12781349 45.25562697 -44.13603654 46.49555251 -44.15821838 48.99893188 C-44.17290161 50.25255775 -44.17290161 50.25255775 -44.18788147 51.5315094 C-44.19363693 52.45004196 -44.1993924 53.36857452 -44.20532227 54.31494141 C-44.22017166 55.76378471 -44.22017166 55.76378471 -44.23532104 57.24189758 C-44.26699216 60.44509401 -44.29171565 63.64830528 -44.31640625 66.8515625 C-44.33697093 69.06831251 -44.35796727 71.28505855 -44.37937927 73.50180054 C-44.43465012 79.34449051 -44.48403727 85.18721616 -44.53222656 91.02996826 C-44.58240502 96.98876125 -44.63811014 102.94750225 -44.69335938 108.90625 C-44.80100227 120.60412396 -44.90192309 132.30204193 -45 144 C-53.91 144 -62.82 144 -72 144 C-72 97.47 -72 50.94 -72 3 C-63.09 3 -54.18 3 -45 3 C-44.67 8.94 -44.34 14.88 -44 21 C-42.96875 19.865625 -41.9375 18.73125 -40.875 17.5625 C-29.30980426 6.07889294 -16.36855177 0 0 0 Z " fill="#262626" transform="translate(1380,185)"/>
<path d="M0 0 C0 8.91 0 17.82 0 27 C-2.0625 26.9175 -4.125 26.835 -6.25 26.75 C-19.90806146 26.7637821 -31.32850836 32.38424383 -41.37109375 41.3515625 C-44.18068521 44.19484211 -45.24839227 46.16572721 -45.2784729 50.08122253 C-45.28963638 50.90993362 -45.30079987 51.73864471 -45.31230164 52.59246826 C-45.31446182 53.49805481 -45.31662201 54.40364136 -45.31884766 55.33666992 C-45.32889328 56.29295792 -45.3389389 57.24924591 -45.34928894 58.23451233 C-45.3802145 61.39982494 -45.39718217 64.56505262 -45.4140625 67.73046875 C-45.4327666 69.92337276 -45.45233944 72.11626952 -45.4727478 74.30915833 C-45.52415504 80.08441906 -45.56373479 85.85970314 -45.60089111 91.6350708 C-45.64087693 97.52695535 -45.69199397 103.41874201 -45.7421875 109.31054688 C-45.83904857 120.87363612 -45.92239228 132.43676548 -46 144 C-54.58 144 -63.16 144 -72 144 C-72 97.47 -72 50.94 -72 3 C-63.42 3 -54.84 3 -46 3 C-45.67 9.27 -45.34 15.54 -45 22 C-42.9271875 19.7725 -42.9271875 19.7725 -40.8125 17.5 C-29.22779962 5.98056554 -16.37378703 0 0 0 Z " fill="#262626" transform="translate(744,185)"/>
<path d="M0 0 C8.91 0 17.82 0 27 0 C27.02254627 18.23646288 27.04097873 36.47291452 27.05181217 54.70938778 C27.05697532 63.17629939 27.06401838 71.64320175 27.07543945 80.11010742 C27.08538572 87.48717094 27.09185329 94.86422775 27.09408849 102.24129778 C27.0953957 106.14982053 27.09848217 110.05832412 27.10573006 113.96684074 C27.11248937 117.64146442 27.11461715 121.31606093 27.11310768 124.99069023 C27.11351638 126.99079611 27.11891204 128.99089898 27.12442017 130.99099731 C27.1230455 132.17035355 27.12167084 133.34970978 27.12025452 134.56480408 C27.12117631 135.59629043 27.1220981 136.62777678 27.12304783 137.69052029 C27 140 27 140 26 141 C17.42 141 8.84 141 0 141 C0 94.47 0 47.94 0 0 Z " fill="#262626" transform="translate(1401,188)"/>
<path d="M0 0 C1.29235062 -0.00860046 2.58470123 -0.01720093 3.91621399 -0.02606201 C5.34664877 -0.03049699 6.77708397 -0.03479537 8.20751953 -0.03897095 C9.7157154 -0.04687582 11.22390941 -0.05514501 12.73210144 -0.06375122 C17.68482669 -0.08993596 22.63756022 -0.10527951 27.59033203 -0.11953735 C29.298818 -0.12489928 31.00730392 -0.1302768 32.71578979 -0.13566971 C39.82738005 -0.15729696 46.93896808 -0.17603012 54.05058289 -0.1872921 C64.22151998 -0.20350752 74.39207363 -0.2366283 84.56286621 -0.29369295 C91.72485853 -0.33249659 98.88674876 -0.35193732 106.04884338 -0.35721266 C110.32055828 -0.36085308 114.59186389 -0.37273314 118.86346436 -0.4053154 C122.88882719 -0.43557875 126.91353704 -0.44164366 130.93898964 -0.42993164 C132.4078548 -0.42971239 133.87675187 -0.4378928 135.34551048 -0.45558548 C148.21381721 -0.60202428 158.39031937 1.9402803 167.81298828 11.0562439 C177.99144157 22.27971293 178.15697363 35.06440615 178.10351562 49.48007202 C178.10758613 51.32737029 178.11293069 53.17466613 178.1194458 55.0219574 C178.13306823 60.01574032 178.12784176 65.00933633 178.11830854 70.00312233 C178.11068559 75.24214792 178.11776486 80.48115807 178.12246704 85.72018433 C178.12791693 94.51631528 178.12075311 103.31237054 178.10644531 112.10848999 C178.09012031 122.26165887 178.09540935 132.41464699 178.11192453 142.56781149 C178.12556125 151.30272001 178.12744837 160.03757429 178.11960852 168.77249002 C178.11494403 173.98176439 178.11427341 179.19095394 178.12421799 184.40022278 C178.13291722 189.29886223 178.12681188 194.19726979 178.10953522 199.09588432 C178.10558614 200.88807733 178.1066772 202.68029002 178.11332321 204.47247505 C178.16361483 219.41815833 176.67771805 230.72619837 165.98486328 241.97421265 C154.82966484 252.13386706 141.50661327 252.46125632 127.06420898 252.38095093 C125.62418119 252.38038551 124.18415283 252.38070592 122.74412537 252.38183594 C118.86881563 252.38240536 114.9936319 252.3707183 111.11835122 252.35668802 C107.05581074 252.3441115 102.99326678 252.34300474 98.93070984 252.34063721 C91.25286686 252.33444265 83.57508144 252.31805948 75.89726371 252.29793823 C67.14990383 252.2755159 58.40254109 252.26456993 49.65515959 252.25454736 C31.6751779 252.23369126 13.69527501 252.19704059 -4.28466797 252.15390015 C-4.28466797 241.26390015 -4.28466797 230.37390015 -4.28466797 219.15390015 C-1.67915039 219.15913696 0.92636719 219.16437378 3.61083984 219.16976929 C63.07148651 219.35665112 63.07148651 219.35665112 122.52783203 218.77890015 C123.5946521 218.76352203 124.66147217 218.74814392 125.76062012 218.7322998 C128.66903997 218.68837918 131.57680575 218.63110758 134.48486328 218.56796265 C135.72315636 218.55062828 135.72315636 218.55062828 136.98646545 218.53294373 C141.31600575 218.56963039 141.31600575 218.56963039 144.71533203 216.15390015 C144.91260507 213.74973275 144.98469382 211.46068116 144.96929932 209.0553894 C144.9724193 208.31596871 144.97553928 207.57654801 144.97875381 206.81472063 C144.98676417 204.32418499 144.98039845 201.83389095 144.97412109 199.34335327 C144.97682961 197.56307329 144.98038976 195.78279443 144.98474121 194.0025177 C144.99388407 189.15758725 144.99031317 184.31274167 144.98398304 179.46780968 C144.97893284 174.40650574 144.98361175 169.34520924 144.98675537 164.28390503 C144.99039788 155.78303721 144.98558845 147.2822041 144.97607422 138.78134155 C144.96518913 128.94177039 144.9687145 119.10228211 144.97972703 109.26271296 C144.9887918 100.82703518 144.99008916 92.39138242 144.98484969 83.95570135 C144.98172552 78.91201767 144.98133286 73.86837298 144.98792267 68.82469177 C144.99368374 64.08381823 144.98972204 59.34305193 144.97813416 54.60219002 C144.97548092 52.85824321 144.97626391 51.11428744 144.98065948 49.37034416 C144.98609034 46.99757629 144.9793111 44.62515634 144.96929932 42.25241089 C144.97376076 41.55533917 144.9782222 40.85826745 144.98281884 40.14007235 C145.04688869 36.20544244 145.04688869 36.20544244 142.71533203 33.15390015 C140.12823473 32.85170572 140.12823473 32.85170572 137.05944824 32.90666199 C135.8563652 32.9024675 134.65328217 32.89827301 133.41374207 32.89395142 C132.07351604 32.89943529 130.73329083 32.90511828 129.39306641 32.91098022 C127.98716646 32.90990775 126.58126694 32.90796958 125.17536926 32.90522766 C121.35105176 32.90037066 117.52685052 32.90804562 113.70254707 32.9181807 C109.70628104 32.92694756 105.7100188 32.92520402 101.71374512 32.92481995 C95.00185189 32.92575723 88.2900038 32.93444971 81.578125 32.9480896 C73.81077039 32.96381579 66.04346525 32.96908774 58.27609587 32.96835405 C50.81380239 32.96774429 43.35152508 32.97284496 35.88923645 32.98114586 C32.70904921 32.98468245 29.5288677 32.98650965 26.34867859 32.98703957 C22.60588957 32.98804204 18.8631423 32.99413083 15.12036705 33.0042057 C13.7440841 33.00713353 12.36779634 33.0083555 10.99151039 33.00777817 C9.11807436 33.00728956 7.24464014 33.013546 5.37121582 33.02018738 C3.79608089 33.02270114 3.79608089 33.02270114 2.18912506 33.02526569 C-0.28757363 32.98861808 -0.28757363 32.98861808 -2.28466797 34.15390015 C-3.55834182 37.97492171 -3.4617587 41.58921343 -3.48999023 45.57260132 C-3.49988983 46.43135361 -3.50978943 47.2901059 -3.51998901 48.17488098 C-3.55159563 51.0155155 -3.57635817 53.85616675 -3.60107422 56.6968689 C-3.62164447 58.66556739 -3.64264096 60.63426147 -3.66404724 62.60295105 C-3.71926058 67.78638133 -3.76867315 72.96985142 -3.81689453 78.15335083 C-3.86711491 83.44198147 -3.92279818 88.73055424 -3.97802734 94.01913452 C-4.08559991 104.39734031 -4.18704693 114.77559632 -4.28466797 125.15390015 C-8.68122969 125.17855518 -13.07775517 125.19673857 -17.47436523 125.20883179 C-18.97111715 125.21387136 -20.46786412 125.22070302 -21.96459961 125.2293396 C-24.11166604 125.24142173 -26.25866759 125.24713206 -28.40576172 125.2515564 C-30.3460022 125.25941162 -30.3460022 125.25941162 -32.32543945 125.26742554 C-35.28466797 125.15390015 -35.28466797 125.15390015 -36.28466797 124.15390015 C-36.39583675 121.44810478 -36.44206424 118.7676014 -36.44580078 116.06088257 C-36.45076569 115.21194427 -36.45573059 114.36300598 -36.46084595 113.48834229 C-36.47552174 110.6620097 -36.4822825 107.83573344 -36.48779297 105.0093689 C-36.49354495 103.04414366 -36.49930268 101.07891844 -36.50506592 99.11369324 C-36.51559466 94.98003884 -36.52142341 90.84640397 -36.52490234 86.71273804 C-36.53035675 81.44175792 -36.55431085 76.17104011 -36.5828743 70.90014172 C-36.6016068 66.83264954 -36.60671214 62.7652188 -36.60823822 58.69768715 C-36.61124711 56.75662126 -36.61921533 54.81555599 -36.6324234 52.8745327 C-36.73355306 36.8541042 -36.02650539 22.25495833 -24.59716797 9.90390015 C-17.55938549 3.21333274 -9.59907308 0.04759858 0 0 Z M-26.96826172 17.1578064 C-31.99970695 24.78708982 -33.4375217 32.83171699 -33.39819336 41.77792358 C-33.39833939 42.64657547 -33.39848541 43.51522736 -33.39863586 44.41020203 C-33.39793987 47.27791857 -33.39016212 50.14556996 -33.38232422 53.01327515 C-33.38045893 55.00295984 -33.37903555 56.992645 -33.3780365 58.98233032 C-33.37422009 64.21675893 -33.36439726 69.45115975 -33.35333252 74.68557739 C-33.34309958 80.02787907 -33.33853484 85.37018524 -33.33349609 90.7124939 C-33.32277422 101.19297681 -33.30518449 111.67343182 -33.28466797 122.15390015 C-24.37466797 122.15390015 -15.46466797 122.15390015 -6.28466797 122.15390015 C-6.27532227 119.50906616 -6.26597656 116.86423218 -6.25634766 114.13925171 C-6.22259797 105.40596678 -6.16706034 96.67291866 -6.10076523 87.93982315 C-6.0612365 82.64430746 -6.0290745 77.3489594 -6.01367188 72.05331421 C-5.99854084 66.94379621 -5.96415859 61.83473891 -5.91635895 56.72542572 C-5.90150843 54.77501171 -5.89362486 52.82453195 -5.89278412 50.87406158 C-5.89042373 48.14424884 -5.8634197 45.41571891 -5.83056641 42.68612671 C-5.83559677 41.87764282 -5.84062714 41.06915894 -5.84580994 40.23617554 C-5.78311035 36.87449723 -5.6779884 34.67587462 -3.62186718 31.94720173 C-0.66699275 29.67996624 0.92938499 29.6491116 4.62950134 29.63923645 C5.83941238 29.62651199 7.04932343 29.61378754 8.29589844 29.60067749 C9.63354688 29.60685971 10.97119341 29.61346573 12.30883789 29.62045288 C13.72002566 29.61339422 15.13120586 29.60464942 16.54237366 29.59434509 C20.37305281 29.5718342 24.20331913 29.5747947 28.03403926 29.58366656 C31.23241469 29.58877531 34.43071245 29.58148479 37.62907988 29.57419449 C45.17474529 29.55718989 52.7202085 29.56076663 60.26586914 29.57748413 C68.04930663 29.5944055 75.83218329 29.57857238 83.61555952 29.54626125 C90.29935701 29.5195664 96.98297991 29.51228904 103.66682535 29.52077633 C107.65825346 29.52570602 111.64934414 29.52348816 115.6407299 29.50298882 C119.39448969 29.48463305 123.14744286 29.49058788 126.90115929 29.51518822 C128.27779488 29.52019666 129.6544919 29.51670525 131.03107834 29.50403976 C132.91205829 29.48810429 134.79323402 29.50608477 136.67417908 29.52571106 C138.25233099 29.52659052 138.25233099 29.52659052 139.86236477 29.52748775 C143.85406114 30.40392546 145.30221281 31.88856385 147.71533203 35.15390015 C148.20948755 37.84614109 148.39388094 39.90836942 148.35025024 42.59298706 C148.3580502 43.33285433 148.36585015 44.07272161 148.37388647 44.8350091 C148.39380133 47.30965396 148.37804529 49.78276002 148.36230469 52.25741577 C148.36908108 54.03327837 148.37798434 55.80913394 148.38885498 57.5849762 C148.41165237 62.40528524 148.40281018 67.22505931 148.38695955 72.04537773 C148.37430286 77.08925699 148.38604003 82.13309038 148.39389038 87.17697144 C148.40298761 95.64739203 148.39099708 104.11759467 148.3671875 112.58798218 C148.33997611 122.38169461 148.34879022 132.17488662 148.37631953 141.96858644 C148.39900748 150.37638444 148.40221221 158.78402575 148.38912618 167.19184446 C148.38132996 172.21385447 148.38029483 177.23561983 148.39680862 182.25761414 C148.41124953 186.97904643 148.40123867 191.6998076 148.37233734 196.42116737 C148.36572449 198.15417173 148.36762765 199.88723255 148.37865067 201.62021446 C148.39231079 203.98584373 148.37518813 206.34932122 148.35025024 208.71481323 C148.36140385 209.40110007 148.37255746 210.0873869 148.38404906 210.79447031 C148.30956562 214.43540853 147.73915019 216.12161743 145.55727673 219.0788908 C142.24258481 221.49907045 140.67234687 221.78258322 136.60929871 221.7931366 C135.38237305 221.80842407 134.15544739 221.82371155 132.89134216 221.83946228 C131.53994461 221.83121104 130.18854991 221.82248233 128.8371582 221.81332397 C127.40785322 221.82177994 125.97855975 221.83242532 124.54928589 221.84509277 C120.67557775 221.87323151 116.80242348 221.87076907 112.92864394 221.86279893 C108.87799017 221.85967345 104.82751267 221.88470937 100.77693176 221.90675354 C93.10950971 221.94420481 85.44226503 221.95634216 77.77476054 221.95937794 C69.04437458 221.96406761 60.31416641 221.99698794 51.58385885 222.0322758 C33.62765981 222.10422239 15.67167307 222.1370024 -2.28466797 222.15390015 C-2.28466797 231.06390015 -2.28466797 239.97390015 -2.28466797 249.15390015 C16.61320359 249.19908043 35.51103129 249.2359088 54.40894318 249.25752449 C63.18394405 249.26782864 71.95890894 249.28187252 80.73388672 249.30477905 C88.38386227 249.32473929 96.03381175 249.33762284 103.68381262 249.34207714 C107.7328702 249.34468005 111.78185321 249.3507801 115.83088684 249.36536026 C119.64590548 249.3789858 123.46081917 249.38311277 127.27585983 249.38011551 C128.67220506 249.38066345 130.06855398 249.38461121 131.46487808 249.3923111 C144.82848999 249.46235746 155.67288118 247.58031996 165.82080078 238.3531189 C172.32760816 230.7998559 174.8675125 222.279864 174.85577393 212.55827332 C174.85874505 211.78941431 174.86171617 211.02055531 174.86477733 210.22839755 C174.87345459 207.64992451 174.87497176 205.07149796 174.87646484 202.49301147 C174.88109376 200.64497783 174.88611852 198.79694515 174.89151001 196.94891357 C174.90463016 191.92597942 174.91107838 186.90305864 174.91552067 181.88011003 C174.91845241 178.74088438 174.92255744 175.60166239 174.92702484 172.46243858 C174.94069962 162.63747799 174.95036601 152.81252573 174.95422673 142.98755628 C174.95870562 131.65206223 174.9762458 120.31668887 175.00522733 108.98123151 C175.0268585 100.21589976 175.0369318 91.45060194 175.03826785 82.68524379 C175.03931497 77.45186167 175.045203 72.21859301 175.06308746 66.98523903 C175.07959259 62.05962201 175.08171176 57.13420343 175.07294846 52.20856857 C175.07217935 50.40466339 175.07650402 48.60074744 175.08640671 46.79686928 C175.15812941 32.91311325 173.94923524 21.58741313 163.78173828 11.1734314 C153.78580422 2.57142575 141.61012201 1.55791793 128.91992188 1.63632202 C127.48758742 1.63088594 126.05525857 1.62375503 124.62294006 1.61508179 C120.77377792 1.59702492 116.9250501 1.60384096 113.07588148 1.61659813 C109.0251557 1.62681439 104.97446401 1.61730911 100.92373657 1.61105347 C94.12698778 1.60380359 87.33041361 1.6132962 80.53369141 1.63241577 C72.7008315 1.65419703 64.86838797 1.64711346 57.03553808 1.62511015 C50.28013457 1.60690087 43.52485567 1.60442419 36.76943552 1.61486483 C32.74782597 1.62106727 28.72641155 1.62202546 24.70481491 1.60871887 C20.92391855 1.59707928 17.14355425 1.60533192 13.36271477 1.6282959 C11.33126918 1.63602042 9.29977806 1.62429801 7.26835632 1.61178589 C-6.77967226 1.74027273 -17.97214699 6.15166058 -26.96826172 17.1578064 Z " fill="#F59F0C" transform="translate(227.28466796875,95.84609985351563)"/>
<path d="M0 0 C1.51701689 -0.00599214 3.03403074 -0.01279926 4.55104065 -0.02035522 C8.65463116 -0.03795527 12.75813815 -0.04270814 16.86176276 -0.0439868 C19.43151504 -0.04541266 22.00124637 -0.04969054 24.57099342 -0.05498123 C33.55320193 -0.07346355 42.53535124 -0.08165433 51.51757812 -0.08007812 C59.86206157 -0.07887807 68.2062858 -0.09995828 76.5507037 -0.13156545 C83.73743287 -0.15780769 90.9240778 -0.16844206 98.11085445 -0.16716731 C102.39307936 -0.16665989 106.67507384 -0.1722198 110.9572506 -0.19352341 C114.99001222 -0.21303974 119.02232683 -0.21293998 123.05510521 -0.19849014 C124.52514813 -0.19641724 125.99522002 -0.20101106 127.46521378 -0.21321106 C141.77074028 -0.32413361 153.4682993 2.00866338 163.8762207 12.13818359 C170.8333687 19.52097989 174.1108599 27.62294949 174.09130859 37.71142578 C174.09123306 39.01247253 174.09115753 40.31351929 174.09107971 41.6539917 C174.08597344 43.06929564 174.08075745 44.48459918 174.07543945 45.89990234 C174.07357356 47.35150097 174.07215046 48.80310023 174.07115173 50.25469971 C174.06734008 54.06872304 174.05752136 57.88270807 174.04644775 61.69671631 C174.03440248 66.27642526 174.02982495 70.85614704 174.02399445 75.43586731 C174.01430886 82.38744726 173.99514287 89.33894324 173.9777832 96.29052734 C163.4177832 96.29052734 152.8577832 96.29052734 141.9777832 96.29052734 C141.6477832 75.83052734 141.3177832 55.37052734 140.9777832 34.29052734 C137.32341716 33.37693583 134.59055965 33.16254341 130.8603363 33.15681458 C129.60546417 33.15254959 128.35059204 33.14828461 127.05769348 33.14389038 C125.66964719 33.14423988 124.28160091 33.1447014 122.89355469 33.14526367 C121.42986973 33.14227113 119.96618557 33.13886838 118.50250244 33.13508606 C114.52951986 33.12625384 110.55655883 33.12390834 106.58356738 33.12327027 C103.26821924 33.12232067 99.95287612 33.11864198 96.63752991 33.11509818 C88.8187348 33.10695739 80.9999512 33.10451369 73.18115234 33.10522461 C65.10929165 33.10582605 57.03749764 33.0952602 48.96565384 33.07948095 C42.03819191 33.06642023 35.11075182 33.06104006 28.18327767 33.06168002 C24.04446287 33.06193534 19.90570739 33.05906508 15.76690483 33.04850197 C11.87714837 33.03884508 7.98750828 33.03872513 4.0977478 33.0460186 C2.66866448 33.04706729 1.239574 33.04468475 -0.18949699 33.03865814 C-2.1369013 33.03097607 -4.08434501 33.03676519 -6.03175354 33.04328918 C-7.12257012 33.04274442 -8.21338671 33.04219965 -9.33725834 33.04163837 C-12.24664367 33.09670513 -12.24664367 33.09670513 -15.0222168 35.29052734 C-15.46151731 37.87480398 -15.46151731 37.87480398 -15.36279297 40.93359375 C-15.36256638 42.11466705 -15.36233978 43.29574036 -15.36210632 44.51260376 C-15.34662247 45.79283417 -15.33113861 47.07306458 -15.31518555 48.39208984 C-15.30881828 50.35219498 -15.30881828 50.35219498 -15.30232239 52.35189819 C-15.29086312 55.82744521 -15.26138729 59.30261662 -15.22821045 62.77801514 C-15.19753248 66.32380085 -15.18382196 69.8696472 -15.16870117 73.41552734 C-15.13651815 80.37401506 -15.08530909 87.33225317 -15.0222168 94.29052734 C-13.86043663 94.30598854 -13.86043663 94.30598854 -12.67518616 94.32176208 C-5.39092758 94.41957031 1.89324266 94.52206045 9.17735958 94.6298666 C12.92257118 94.68512965 16.66779054 94.73855489 20.41308594 94.7878418 C24.02466906 94.83543569 27.63615452 94.88777641 31.24762154 94.94346809 C32.6283584 94.96391429 34.00912206 94.98262356 35.38990593 94.99960136 C37.31761634 95.02359515 39.24524069 95.05422999 41.17285156 95.08520508 C42.27205429 95.10074936 43.37125702 95.11629364 44.50376892 95.13230896 C46.9777832 95.29052734 46.9777832 95.29052734 47.9777832 96.29052734 C48.06617991 98.66621254 48.09308626 101.01261408 48.07543945 103.38818359 C48.07402451 104.09704208 48.07260956 104.80590057 48.07115173 105.53623962 C48.06553763 107.80854447 48.05298283 110.0807521 48.0402832 112.35302734 C48.03527002 113.8901353 48.0307068 115.42724479 48.02661133 116.96435547 C48.01556363 120.73978376 47.99828962 124.51513905 47.9777832 128.29052734 C40.23167348 128.36049173 32.48563983 128.41357164 24.73929214 128.44596386 C21.14110282 128.46152209 17.54313199 128.48257647 13.94506836 128.5168457 C10.46316171 128.5497955 6.98146325 128.56745404 3.49941254 128.57515907 C1.5454572 128.58327978 -0.40841611 128.60664006 -2.36224365 128.63041687 C-16.02287014 128.63295334 -28.04991706 126.0624689 -38.2722168 116.60302734 C-45.06054897 109.46240648 -48.11738851 101.47000895 -48.19921875 91.75292969 C-48.20578995 91.10516571 -48.21236115 90.45740173 -48.21913147 89.79000854 C-48.23879407 87.65215927 -48.25051405 85.51438018 -48.26049805 83.37646484 C-48.26457357 82.6424004 -48.2686491 81.90833595 -48.27284813 81.15202713 C-48.29368344 77.26313818 -48.30799355 73.37428419 -48.31738281 69.48535156 C-48.32841485 65.4909443 -48.36278419 61.49709908 -48.40255451 57.50288963 C-48.42884766 54.41255745 -48.43708602 51.32235632 -48.44066429 48.23192215 C-48.44550111 46.76087289 -48.45703111 45.28982833 -48.47570229 43.81888962 C-48.63399544 30.51680969 -46.05161889 20.71854578 -36.8972168 10.72802734 C-26.50073911 0.66548363 -13.69198515 -0.01081648 0 0 Z M-39.19018555 17.77490234 C-42.00851499 21.64484725 -43.57416548 25.75820853 -45.0222168 30.29052734 C-45.3522168 31.28052734 -45.6822168 32.27052734 -46.0222168 33.29052734 C-46.13058524 35.16902598 -46.18106009 37.05108295 -46.19921875 38.93261719 C-46.21205399 40.09167572 -46.22488922 41.25073425 -46.2381134 42.44491577 C-46.24550034 43.70107697 -46.25288727 44.95723816 -46.26049805 46.25146484 C-46.26856979 47.54815094 -46.27664154 48.84483704 -46.28495789 50.18081665 C-46.2999834 52.93304309 -46.30981796 55.68524381 -46.31738281 58.4375 C-46.3283635 61.92835021 -46.36266368 65.41854811 -46.40255451 68.90917015 C-46.43534733 72.27323901 -46.4395296 75.63724875 -46.44799805 79.00146484 C-46.46550613 80.23738373 -46.48301422 81.47330261 -46.50105286 82.74667358 C-46.47221867 94.48094751 -44.3086193 105.56484568 -36.0222168 114.29052734 C-35.49756836 114.84353516 -34.97291992 115.39654297 -34.43237305 115.96630859 C-27.93378091 122.12850302 -18.95005248 125.42233731 -10.08203125 125.40405273 C-8.86099197 125.4039772 -7.6399527 125.40390167 -6.38191223 125.40382385 C-4.40368721 125.39608192 -4.40368721 125.39608192 -2.38549805 125.38818359 C-1.0221512 125.38631815 0.34119631 125.38489484 1.70454407 125.38389587 C5.29006811 125.38008067 8.87555155 125.37025889 12.46105957 125.35919189 C16.1209253 125.34895635 19.7807978 125.34433886 23.44067383 125.33935547 C30.61974613 125.32916661 37.79870697 125.30959246 44.9777832 125.29052734 C44.9777832 116.38052734 44.9777832 107.47052734 44.9777832 98.29052734 C40.75352539 98.22994141 36.52926758 98.16935547 32.17700195 98.10693359 C28.81007238 98.05597041 25.44316057 98.00405137 22.0762558 97.95148468 C18.52140834 97.89624636 14.96655374 97.84269487 11.41162109 97.79321289 C7.33332363 97.73636883 3.25517882 97.67185934 -0.82299805 97.60693359 C-2.09806717 97.5902211 -3.37313629 97.57350861 -4.68684387 97.55628967 C-5.86784164 97.53634445 -7.04883942 97.51639923 -8.265625 97.49584961 C-9.82782524 97.47253319 -9.82782524 97.47253319 -11.42158508 97.44874573 C-14.0222168 97.29052734 -14.0222168 97.29052734 -17.0222168 96.29052734 C-18.06071886 93.17502117 -18.16740533 90.95850597 -18.19921875 87.68920898 C-18.21205399 86.54114273 -18.22488922 85.39307648 -18.2381134 84.21022034 C-18.24550034 82.96957321 -18.25288727 81.72892609 -18.26049805 80.45068359 C-18.26856979 79.17704453 -18.27664154 77.90340546 -18.28495789 76.59117126 C-18.29879643 73.89529787 -18.3098143 71.19954669 -18.31738281 68.50366211 C-18.32846153 65.05228462 -18.36288546 61.60154933 -18.40255451 58.15039921 C-18.43498859 54.85472433 -18.43949574 51.55899376 -18.44799805 48.26318359 C-18.46550613 47.0245607 -18.48301422 45.78593781 -18.50105286 44.50978088 C-18.49812729 43.35856247 -18.49520172 42.20734406 -18.4921875 41.02124023 C-18.49805374 40.00880753 -18.50391998 38.99637482 -18.50996399 37.95326233 C-17.87212175 34.47112061 -16.78488413 33.46920622 -14.0222168 31.29052734 C-11.13333035 30.79554272 -11.13333035 30.79554272 -7.71495056 30.80278015 C-6.41800766 30.79583633 -5.12106476 30.78889252 -3.78482056 30.78173828 C-2.34954498 30.79429955 -0.91427279 30.80725214 0.52099609 30.82055664 C2.03394217 30.82004781 3.54688851 30.81779191 5.05982971 30.81391907 C9.1672785 30.80849719 13.27427667 30.8279175 17.38164449 30.85202003 C21.67770957 30.87330316 25.97377278 30.87272072 30.2698822 30.87471008 C37.48354863 30.88115883 44.69704555 30.90241102 51.91064453 30.93383789 C61.17421341 30.97414215 70.43767186 30.99152739 79.70131779 31.00114727 C87.66075286 31.00944542 95.62016448 31.02668314 103.57957911 31.04618478 C106.14061243 31.05225243 108.70164664 31.05739389 111.26268196 31.06253624 C115.28375465 31.07131451 119.30477264 31.08561839 123.32581139 31.10424614 C124.8032636 31.11037157 126.28072384 31.11482009 127.75818634 31.11748886 C129.77130563 31.12146687 131.78440816 31.13222578 133.79750061 31.14335632 C134.92518891 31.1476298 136.05287722 31.15190329 137.21473789 31.15630627 C139.9777832 31.29052734 139.9777832 31.29052734 142.9777832 32.29052734 C144.22953541 35.4471568 144.13195255 38.70737038 144.18310547 42.06884766 C144.20305069 43.22974915 144.22299591 44.39065063 144.24354553 45.58673096 C144.26025803 46.83476501 144.27697052 48.08279907 144.29418945 49.36865234 C144.31497055 50.65036316 144.33575165 51.93207397 144.35716248 53.25262451 C144.41223068 56.65229006 144.46170684 60.05201472 144.51000977 63.45178223 C144.56033652 66.92412539 144.61591306 70.39638427 144.67114258 73.86865234 C144.77903224 80.67587904 144.87817345 87.48315427 144.9777832 94.29052734 C153.5577832 94.29052734 162.1377832 94.29052734 170.9777832 94.29052734 C171.04580277 86.23177863 171.10073886 78.17325648 171.13321972 70.11429691 C171.14881594 66.37141744 171.16994219 62.62874607 171.20410156 58.88598633 C171.23691274 55.26793333 171.25468156 51.65007937 171.26241493 48.03188896 C171.26791971 46.65770781 171.27866833 45.28353644 171.29497337 43.90944099 C171.43877872 31.27766176 169.78517268 22.62530542 160.9777832 13.29052734 C152.75524388 5.87570309 144.40934821 3.18479174 133.36322021 3.14335632 C131.39099236 3.13262337 131.39099236 3.13262337 129.37892151 3.12167358 C127.93368554 3.11883383 126.48844932 3.11612204 125.04321289 3.11352539 C123.51177315 3.10725462 121.98033492 3.10060729 120.44889832 3.09361267 C115.43249557 3.07264576 110.41609278 3.06221835 105.3996582 3.05224609 C103.66821528 3.04819602 101.93677251 3.04407902 100.2053299 3.03989601 C92.07028426 3.02086186 83.93524761 3.00662617 75.80018401 2.99828404 C66.42807365 2.9885129 57.05619954 2.96218918 47.68417239 2.92178315 C40.42705298 2.89157478 33.17000114 2.87681077 25.9128201 2.87350303 C21.5842572 2.87115831 17.25594721 2.86227311 12.92745209 2.83704185 C8.85288747 2.8136726 4.77874076 2.80956315 0.70412636 2.81980324 C-0.78492057 2.82029653 -2.27398872 2.81403732 -3.76297188 2.80024719 C-18.64960395 2.67017148 -29.25642219 6.30264027 -39.19018555 17.77490234 Z " fill="#14542D" transform="translate(144.022216796875,219.70947265625)"/>
<path d="M0 0 C10.56 0 21.12 0 32 0 C32.029729 6.4664209 32.029729 6.4664209 32.06005859 13.06347656 C32.12687613 27.28483951 32.20441647 41.50612892 32.28752708 55.72740555 C32.3376685 64.35226922 32.38411124 72.9771233 32.421875 81.60205078 C32.45479571 89.11873021 32.49462736 96.63533564 32.54279006 104.15193343 C32.56805428 108.13264002 32.58983578 112.11329752 32.60334396 116.09406281 C32.61616504 119.84018316 32.63821987 123.58613518 32.66738319 127.33216286 C32.67645862 128.70758813 32.68214913 130.08304052 32.68421364 131.45849419 C32.68753624 133.3357507 32.70418991 135.21296953 32.7215271 137.09014893 C32.72705786 138.14099293 32.73258862 139.19183693 32.73828697 140.27452469 C33.00092121 143.00959342 33.59364614 144.66613119 35 147 C42.3973076 147.04629419 49.79458407 147.08185426 57.19200706 147.10362434 C60.62675459 147.1140717 64.06140317 147.12824805 67.49609375 147.15087891 C71.44269638 147.17672063 75.38925863 147.18646493 79.3359375 147.1953125 C81.19066177 147.21079636 81.19066177 147.21079636 83.08285522 147.22659302 C84.22388702 147.22674408 85.36491882 147.22689514 86.54052734 147.22705078 C87.548685 147.231492 88.55684265 147.23593323 89.59555054 147.24050903 C92.18428264 147.23786227 92.18428264 147.23786227 94 145 C94.33069425 142.77803673 94.33069425 142.77803673 94.31884766 140.18310547 C94.33871735 139.18221893 94.35858704 138.1813324 94.37905884 137.15011597 C94.39061005 136.06674957 94.40216125 134.98338318 94.4140625 133.8671875 C94.43342865 132.76021515 94.4527948 131.6532428 94.4727478 130.51272583 C94.53266754 126.96689631 94.57897873 123.42103455 94.625 119.875 C94.66316835 117.47524603 94.70221939 115.07550592 94.7421875 112.67578125 C94.84004532 106.78392512 94.91951674 100.89222193 95 95 C105.56 95 116.12 95 127 95 C127.06908903 102.50767425 127.12876008 110.01423313 127.16479492 117.52197266 C127.17982636 120.07279206 127.20025705 122.62358585 127.22631836 125.17431641 C127.26294972 128.85325463 127.27978346 132.53184935 127.29296875 136.2109375 C127.30845261 137.34050873 127.32393646 138.47007996 127.33988953 139.63388062 C127.34232847 151.2624572 124.67284308 160.13525897 117 169 C106.84743793 178.85118731 96.18354929 180.61970786 82.5 180.53125 C81.0136693 180.53395171 79.52734034 180.53783974 78.04101562 180.54284668 C74.94123336 180.54870996 71.84191534 180.54028259 68.7421875 180.52148438 C64.79491204 180.49869598 60.84872492 180.51183633 56.90148926 180.53577423 C53.83683262 180.55031899 50.77242846 180.5455869 47.70776367 180.53526306 C46.25349799 180.53261964 44.7992084 180.5357803 43.3449707 180.54518127 C29.95564385 180.61276976 20.00744462 177.87769436 10.3125 168.33984375 C0.29556226 157.34625458 -0.3049914 144.86105185 -0.22705078 130.55419922 C-0.22648552 129.12417102 -0.22680547 127.69414224 -0.22793579 126.26411438 C-0.22850582 122.41147178 -0.21680865 118.55895563 -0.20278788 114.70634222 C-0.19022175 110.66915382 -0.1891054 106.63196202 -0.18673706 102.59475708 C-0.18053949 94.96292143 -0.16415216 87.33114359 -0.14403808 79.69933331 C-0.12162524 71.0052 -0.11067215 62.31106383 -0.10064721 53.61690879 C-0.07978427 35.7445665 -0.04312975 17.87230338 0 0 Z M3 2 C2.90956283 20.84606308 2.83593855 39.69194935 2.79275131 58.53817463 C2.77216209 67.28960779 2.74411146 76.04089614 2.69824219 84.79223633 C2.65826256 92.42356362 2.63254075 100.05478599 2.62364602 107.6862151 C2.61845001 111.72373049 2.60631435 115.76094581 2.57707977 119.79836464 C2.5497343 123.60608869 2.54159314 127.41339183 2.54756927 131.22120476 C2.54647752 132.61146973 2.53863798 134.00175019 2.5231781 135.39192963 C2.39303326 147.70899195 4.57621349 157.71747798 13 167 C13.48984375 167.54398438 13.9796875 168.08796875 14.484375 168.6484375 C23.34286076 177.28765381 35.38727154 178.75618901 47.19140625 178.62890625 C48.49851059 178.63131821 49.80561493 178.63373016 51.15232849 178.63621521 C53.89639104 178.63904645 56.63962529 178.6246382 59.38354492 178.59692383 C62.86541249 178.56280984 66.3458058 178.56889533 69.82774448 178.5875864 C73.19910555 178.60081397 76.57005538 178.58240565 79.94140625 178.56640625 C81.17298965 178.57136612 82.40457306 178.57632599 83.67347717 178.58143616 C95.71414237 178.41962346 106.3215625 175.73009487 115 167 C122.71324265 157.74749182 124.46052525 148.55204328 124.29296875 136.74609375 C124.28872391 135.60463394 124.28447906 134.46317413 124.28010559 133.28712463 C124.26342151 129.6703349 124.22578766 126.05411902 124.1875 122.4375 C124.17243992 119.97331538 124.15875384 117.50912197 124.14648438 115.04492188 C124.11611395 109.02955331 124.05737059 103.01541287 124 97 C115.42 97 106.84 97 98 97 C97.98582031 100.40699219 97.97164063 103.81398438 97.95703125 107.32421875 C97.92640945 110.62729786 97.88732084 113.93017589 97.84741211 117.2331543 C97.82422858 119.52702717 97.80983559 121.82100655 97.80444336 124.11499023 C97.7951568 127.41457516 97.75417012 130.71248414 97.70703125 134.01171875 C97.7109639 135.03585373 97.71489655 136.05998871 97.71894836 137.11515808 C97.6299707 141.46648741 97.38706577 144.30111319 95.25683594 148.14746094 C90.08121571 151.09143442 85.0365434 150.69312039 79.18359375 150.62890625 C77.93498062 150.63131821 76.68636749 150.63373016 75.3999176 150.63621521 C72.7622323 150.63523626 70.12682001 150.62443404 67.48950195 150.59692383 C64.11421798 150.56280433 60.7404533 150.568875 57.36509609 150.5875864 C54.13784037 150.60071031 50.91081663 150.58243966 47.68359375 150.56640625 C46.47311874 150.57136612 45.26264374 150.57632599 44.01548767 150.58143616 C42.89074539 150.56559982 41.76600311 150.54976349 40.60717773 150.53344727 C39.12422462 150.5241494 39.12422462 150.5241494 37.61131287 150.5146637 C34.19314103 149.84097615 33.16087303 148.70460017 31 146 C30.49219131 143.25890732 30.49219131 143.25890732 30.48101807 140.05218506 C30.46710526 138.83504822 30.45319244 137.61791138 30.43885803 136.3638916 C30.44357093 135.01830921 30.44866487 133.6727281 30.45410156 132.32714844 C30.44536596 130.90784573 30.43488022 129.48855287 30.42277527 128.0692749 C30.39489249 124.21831669 30.39151107 120.36767945 30.39249516 116.51663494 C30.38936798 112.49134299 30.3637539 108.46619603 30.34051514 104.440979 C30.29993651 96.81959799 30.27961009 89.19830257 30.26654124 81.57683015 C30.25067747 72.89967934 30.21226452 64.22267433 30.17194796 55.54560804 C30.08952344 37.69709206 30.03842413 19.84866869 30 2 C21.09 2 12.18 2 3 2 Z " fill="#15803D" transform="translate(191,252)"/>
<path d="M0 0 C4.14982912 3.47427555 7.33792705 6.72065769 7.890625 12.30078125 C7.99628583 17.39891633 7.64874966 20.90683383 4.6875 25.25 C0.27415974 29.59272681 -2.87767838 31.41634128 -9.0625 31.5625 C-14.34349209 31.51196419 -17.31889067 30.94408863 -21.3125 27.25 C-25.9353334 22.00245938 -26.67082443 18.90016841 -26.58984375 12.0078125 C-26.06103778 6.74954468 -23.07323884 3.80689292 -19.3125 0.4375 C-13.24451949 -3.98706912 -6.5123401 -3.44048156 0 0 Z " fill="#262626" transform="translate(1423.3125,133.75)"/>
</svg>
